<svg width="139" height="32" viewBox="0 0 139 32" fill="none" xmlns="http://www.w3.org/2000/svg">
<path d="M2.263 1.99102C23.1467 1.99102 44.0304 1.99102 64.9141 1.99102C76.3808 1.99102 87.8475 1.99102 99.3142 1.99102C100.131 1.99102 102.576 1.93423 101.765 2.03558C97.6508 2.54985 93.5361 2.95069 89.4219 3.50605C75.7528 5.35119 62.0601 7.15686 48.4269 9.25426C42.4253 10.1776 36.2212 11.9516 30.1574 12.418C27.3472 12.6342 24.5396 12.9249 21.7356 13.2201C16.0939 13.8139 27.7194 16.207 28.9097 16.3393C40.1129 17.5841 51.6127 17.6155 62.8643 17.8543C64.4583 17.8881 87.7871 16.4116 88.6199 18.0771C88.9759 18.7892 87.0492 18.3437 86.2582 18.4336C83.696 18.7247 81.1228 18.8625 78.5493 19.0129C67.2361 19.674 55.9241 19.6367 44.5948 19.6367C34.085 19.6367 23.5552 19.449 13.0465 19.6367C11.7115 19.6605 15.4686 20.8681 16.7895 21.0626C43.9514 25.0632 71.4622 26.8764 98.8686 28.103C110.688 28.6321 122.52 28.7587 134.338 29.2616C138.499 29.4386 135.884 28.9357 137.012 30.0637" stroke="#FFDB1D" stroke-width="3" stroke-linecap="round"/>
</svg>
